<svg width="95" height="52" viewBox="0 0 95 52" fill="none" xmlns="http://www.w3.org/2000/svg">
<path d="M9.3 10.575L13.5 10.6L5.175 22.175L0.95 22.15L9.3 10.575ZM13.7 22.15V25H0.95V22.15H13.7ZM13.5 7.75V10.6H1.15V7.75H13.5ZM19.9234 12.65V25H16.2484V12.65H19.9234ZM18.8984 7.2C19.6318 7.2 19.9984 7.575 19.9984 8.325V9.65C19.9984 10.4 19.6318 10.775 18.8984 10.775H17.2984C16.5651 10.775 16.1984 10.4 16.1984 9.65V8.325C16.1984 7.575 16.5651 7.2 17.2984 7.2H18.8984ZM35.0076 12.65L31.7826 16.95C31.6326 17.1833 31.441 17.4083 31.2076 17.625C30.9743 17.8417 30.7826 18 30.6326 18.1V18.2C30.7826 18.2833 30.9743 18.4583 31.2076 18.725C31.441 18.9917 31.6326 19.2583 31.7826 19.525L35.4326 25H31.3076L27.0826 18.05L30.8826 12.65H35.0076ZM26.7576 7.5L26.7826 14.725C26.7826 15.3083 26.7493 15.875 26.6826 16.425C26.616 16.975 26.516 17.5167 26.3826 18.05C26.4993 18.5667 26.591 19.1 26.6576 19.65C26.7243 20.1833 26.7576 20.6833 26.7576 21.15V25H23.0576V7.5H26.7576ZM28.4826 17V19.25H25.6076V17H28.4826ZM40.6475 12.65V20.775C40.6475 21.2917 40.7558 21.6583 40.9725 21.875C41.2058 22.0917 41.5725 22.2 42.0725 22.2C42.5891 22.2 43.0975 22.1083 43.5975 21.925C44.1141 21.725 44.7475 21.4167 45.4975 21L45.7975 23.025C44.8975 23.8083 44.0141 24.3917 43.1475 24.775C42.2808 25.1583 41.3891 25.35 40.4725 25.35C38.1225 25.35 36.9475 24.2 36.9475 21.9V12.65H40.6475ZM48.8225 12.65V25H45.8975L45.4725 22.575L45.1225 22.225V12.65H48.8225ZM60.4418 12.325C62.7751 12.325 63.9418 13.4667 63.9418 15.75V25H60.2418V16.9C60.2418 16.35 60.1418 15.975 59.9418 15.775C59.7418 15.5583 59.4001 15.45 58.9168 15.45C58.3835 15.45 57.8335 15.5583 57.2668 15.775C56.7001 15.975 56.0001 16.2917 55.1668 16.725L54.9918 14.65C55.8751 13.9 56.7751 13.325 57.6918 12.925C58.6251 12.525 59.5418 12.325 60.4418 12.325ZM54.8168 12.65L55.2418 15.1L55.5418 15.425V25H51.8418V12.65H54.8168ZM72.7314 12.325C74.2814 12.325 75.5231 12.5417 76.4564 12.975C77.3898 13.3917 78.0564 14.075 78.4564 15.025C78.8731 15.975 79.0814 17.25 79.0814 18.85C79.0814 20.4167 78.8731 21.675 78.4564 22.625C78.0564 23.575 77.3898 24.2583 76.4564 24.675C75.5231 25.0917 74.2814 25.3 72.7314 25.3C71.1981 25.3 69.9564 25.0917 69.0064 24.675C68.0731 24.2583 67.3981 23.575 66.9814 22.625C66.5648 21.675 66.3564 20.4167 66.3564 18.85C66.3564 17.25 66.5648 15.975 66.9814 15.025C67.3981 14.075 68.0731 13.3917 69.0064 12.975C69.9564 12.5417 71.1981 12.325 72.7314 12.325ZM72.7314 15.025C72.0981 15.025 71.5981 15.1333 71.2314 15.35C70.8648 15.5667 70.6064 15.95 70.4564 16.5C70.3064 17.05 70.2314 17.8333 70.2314 18.85C70.2314 19.85 70.3064 20.625 70.4564 21.175C70.6064 21.725 70.8648 22.1083 71.2314 22.325C71.5981 22.525 72.0981 22.625 72.7314 22.625C73.3648 22.625 73.8648 22.525 74.2314 22.325C74.5981 22.1083 74.8564 21.725 75.0064 21.175C75.1564 20.625 75.2314 19.85 75.2314 18.85C75.2314 17.8333 75.1564 17.05 75.0064 16.5C74.8564 15.95 74.5981 15.5667 74.2314 15.35C73.8648 15.1333 73.3648 15.025 72.7314 15.025ZM93.8328 12.65L89.7578 24.125C89.6578 24.3917 89.4995 24.6083 89.2828 24.775C89.0828 24.925 88.8411 25 88.5578 25H85.3328C85.0495 25 84.7995 24.925 84.5828 24.775C84.3828 24.6083 84.2328 24.3917 84.1328 24.125L80.0578 12.65H83.9828L86.2578 20.375C86.3578 20.7417 86.4495 21.1167 86.5328 21.5C86.6161 21.8833 86.6995 22.25 86.7828 22.6H87.1078C87.2078 22.2333 87.2995 21.8667 87.3828 21.5C87.4828 21.1167 87.5828 20.7417 87.6828 20.375L89.9078 12.65H93.8328Z" fill="#464646" fill-opacity="0.6"/>
<path d="M7.425 29.425C8.275 29.425 9.2 29.475 10.2 29.575C11.2 29.6583 12.175 29.8417 13.125 30.125L12.875 32.65C12.1417 32.6333 11.2833 32.6167 10.3 32.6C9.31667 32.5833 8.35 32.575 7.4 32.575C6.93333 32.575 6.53333 32.5917 6.2 32.625C5.88333 32.6417 5.625 32.7083 5.425 32.825C5.225 32.925 5.08333 33.0833 5 33.3C4.91667 33.5167 4.875 33.8167 4.875 34.2C4.875 34.7833 5.00833 35.2083 5.275 35.475C5.55833 35.7417 6.03333 35.9833 6.7 36.2L10.025 37.275C11.4083 37.7417 12.3667 38.375 12.9 39.175C13.4333 39.975 13.7 41.025 13.7 42.325C13.7 43.3083 13.5833 44.125 13.35 44.775C13.1167 45.425 12.75 45.9333 12.25 46.3C11.75 46.6667 11.0917 46.925 10.275 47.075C9.45833 47.2417 8.45833 47.325 7.275 47.325C6.70833 47.325 5.9 47.2833 4.85 47.2C3.8 47.1333 2.6 46.95 1.25 46.65L1.5 43.95C2.48333 43.9667 3.33333 43.9917 4.05 44.025C4.78333 44.0417 5.40833 44.0583 5.925 44.075C6.44167 44.075 6.89167 44.075 7.275 44.075C7.94167 44.075 8.45833 44.0333 8.825 43.95C9.20833 43.8667 9.475 43.7 9.625 43.45C9.775 43.2 9.85 42.8417 9.85 42.375C9.85 41.975 9.79167 41.6583 9.675 41.425C9.575 41.175 9.4 40.9833 9.15 40.85C8.91667 40.7 8.59167 40.5667 8.175 40.45L4.675 39.25C3.35833 38.7667 2.425 38.1333 1.875 37.35C1.325 36.5667 1.05 35.5333 1.05 34.25C1.05 33.25 1.16667 32.4417 1.4 31.825C1.65 31.1917 2.025 30.7 2.525 30.35C3.04167 30 3.7 29.7583 4.5 29.625C5.31667 29.4917 6.29167 29.425 7.425 29.425ZM21.9984 34.325C24.0818 34.325 25.5734 34.6833 26.4734 35.4C27.3901 36.1 27.8484 37.15 27.8484 38.55C27.8651 39.6833 27.5818 40.5333 26.9984 41.1C26.4151 41.65 25.4068 41.925 23.9734 41.925H17.0734V39.85H22.9484C23.5151 39.85 23.8734 39.7333 24.0234 39.5C24.1901 39.25 24.2734 38.9083 24.2734 38.475C24.2568 37.8917 24.0818 37.4917 23.7484 37.275C23.4318 37.0417 22.8901 36.925 22.1234 36.925C21.4401 36.925 20.9068 37.0167 20.5234 37.2C20.1401 37.3833 19.8734 37.7333 19.7234 38.25C19.5734 38.7667 19.4984 39.5167 19.4984 40.5C19.4984 41.5333 19.5901 42.3333 19.7734 42.9C19.9568 43.45 20.2651 43.8333 20.6984 44.05C21.1484 44.2667 21.7651 44.375 22.5484 44.375C23.1151 44.375 23.8151 44.3583 24.6484 44.325C25.4984 44.275 26.3484 44.2 27.1984 44.1L27.5484 46.375C27.0651 46.6083 26.5151 46.7917 25.8984 46.925C25.2818 47.0583 24.6484 47.15 23.9984 47.2C23.3484 47.2667 22.7234 47.3 22.1234 47.3C20.5568 47.3 19.2901 47.075 18.3234 46.625C17.3734 46.1583 16.6818 45.45 16.2484 44.5C15.8318 43.55 15.6234 42.3333 15.6234 40.85C15.6234 39.2333 15.8401 37.95 16.2734 37C16.7068 36.05 17.3901 35.3667 18.3234 34.95C19.2568 34.5333 20.4818 34.325 21.9984 34.325ZM33.1598 34.65L33.6098 37.1L33.9598 37.425V47H30.2598V34.65H33.1598ZM39.1848 34.325L38.8348 37.75H37.8098C37.2264 37.75 36.6181 37.8333 35.9848 38C35.3514 38.1667 34.5514 38.4167 33.5848 38.75L33.3348 36.675C34.2014 35.9083 35.0764 35.325 35.9598 34.925C36.8431 34.525 37.7014 34.325 38.5348 34.325H39.1848ZM53.3787 34.65L49.3037 46.125C49.2037 46.3917 49.0454 46.6083 48.8287 46.775C48.6287 46.925 48.387 47 48.1037 47H44.8787C44.5954 47 44.3454 46.925 44.1287 46.775C43.9287 46.6083 43.7787 46.3917 43.6787 46.125L39.6037 34.65H43.5287L45.8037 42.375C45.9037 42.7417 45.9954 43.1167 46.0787 43.5C46.162 43.8833 46.2454 44.25 46.3287 44.6H46.6537C46.7537 44.2333 46.8454 43.8667 46.9287 43.5C47.0287 43.1167 47.1287 42.7417 47.2287 42.375L49.4537 34.65H53.3787ZM58.8639 34.65V47H55.1889V34.65H58.8639ZM57.8389 29.2C58.5722 29.2 58.9389 29.575 58.9389 30.325V31.65C58.9389 32.4 58.5722 32.775 57.8389 32.775H56.2389C55.5055 32.775 55.1389 32.4 55.1389 31.65V30.325C55.1389 29.575 55.5055 29.2 56.2389 29.2H57.8389ZM67.748 34.325C68.198 34.325 68.6897 34.35 69.223 34.4C69.7564 34.4333 70.2897 34.5083 70.823 34.625C71.373 34.725 71.873 34.875 72.323 35.075L71.923 37.4C71.2564 37.3833 70.6147 37.3667 69.998 37.35C69.398 37.3333 68.8564 37.325 68.373 37.325C67.623 37.325 67.0314 37.425 66.598 37.625C66.1647 37.825 65.848 38.1833 65.648 38.7C65.4647 39.2 65.373 39.9 65.373 40.8C65.373 41.7167 65.4647 42.4333 65.648 42.95C65.848 43.4667 66.1647 43.825 66.598 44.025C67.0314 44.225 67.623 44.325 68.373 44.325C68.6397 44.325 68.9814 44.3167 69.398 44.3C69.8147 44.2833 70.2647 44.2667 70.748 44.25C71.2314 44.2167 71.7064 44.1667 72.173 44.1L72.523 46.45C71.8564 46.75 71.098 46.9667 70.248 47.1C69.398 47.2333 68.5564 47.3 67.723 47.3C66.1897 47.3 64.9647 47.0917 64.048 46.675C63.148 46.2417 62.498 45.55 62.098 44.6C61.698 43.65 61.498 42.3833 61.498 40.8C61.498 39.2167 61.698 37.95 62.098 37C62.5147 36.05 63.1814 35.3667 64.098 34.95C65.0147 34.5333 66.2314 34.325 67.748 34.325ZM80.4213 34.325C82.5046 34.325 83.9963 34.6833 84.8963 35.4C85.813 36.1 86.2713 37.15 86.2713 38.55C86.288 39.6833 86.0046 40.5333 85.4213 41.1C84.838 41.65 83.8296 41.925 82.3963 41.925H75.4963V39.85H81.3713C81.938 39.85 82.2963 39.7333 82.4463 39.5C82.613 39.25 82.6963 38.9083 82.6963 38.475C82.6796 37.8917 82.5046 37.4917 82.1713 37.275C81.8546 37.0417 81.313 36.925 80.5463 36.925C79.863 36.925 79.3296 37.0167 78.9463 37.2C78.563 37.3833 78.2963 37.7333 78.1463 38.25C77.9963 38.7667 77.9213 39.5167 77.9213 40.5C77.9213 41.5333 78.013 42.3333 78.1963 42.9C78.3796 43.45 78.688 43.8333 79.1213 44.05C79.5713 44.2667 80.188 44.375 80.9713 44.375C81.538 44.375 82.238 44.3583 83.0713 44.325C83.9213 44.275 84.7713 44.2 85.6213 44.1L85.9713 46.375C85.488 46.6083 84.938 46.7917 84.3213 46.925C83.7046 47.0583 83.0713 47.15 82.4213 47.2C81.7713 47.2667 81.1463 47.3 80.5463 47.3C78.9796 47.3 77.713 47.075 76.7463 46.625C75.7963 46.1583 75.1046 45.45 74.6713 44.5C74.2546 43.55 74.0463 42.3333 74.0463 40.85C74.0463 39.2333 74.263 37.95 74.6963 37C75.1296 36.05 75.813 35.3667 76.7463 34.95C77.6796 34.5333 78.9046 34.325 80.4213 34.325Z" fill="#022ABF"/>
</svg>
